<svg t="1717497770748" class="icon" viewBox="0 0 1024 1024" version="1.1" xmlns="http://www.w3.org/2000/svg" p-id="16681" width="256" height="256"><path d="M563.33 699.51H132.84c-2.57 0-4.65-2.08-4.65-4.65V636.5c0-2.57 2.08-4.65 4.65-4.65h430.49c2.57 0 4.65 2.08 4.65 4.65v58.36c0 2.57-2.08 4.65-4.65 4.65z" fill="#ffffff" p-id="16682"></path><path d="M105.24 683.34c-4.55 0-8.24 3.69-8.24 8.24v82.39c0 4.55 3.69 8.24 8.24 8.24h708.58c4.55 0 8.24-3.69 8.24-8.24v-82.39c0-4.55-3.69-8.24-8.24-8.24h-16.48c-4.55 0-8.24-3.69-8.24-8.24V131.3c0-4.55-3.69-8.24-8.24-8.24H154.68c-4.55 0-8.24 3.69-8.24 8.24v329.57c0 4.55 3.69 8.24 8.24 8.24 4.55 0 8.24 3.69 8.24 8.24v32.96c0 4.55 3.69 8.24 8.24 8.24h32.96c4.55 0 8.24 3.69 8.24 8.24v49.44c0 4.55 3.69 8.24 8.24 8.24h16.48c4.55 0 8.24-3.69 8.24-8.24v-49.44c0-4.55 3.69-8.24 8.24-8.24h32.96c4.55 0 8.24-3.69 8.24-8.24v-32.96c0-4.55 3.69-8.24 8.24-8.24 4.55 0 8.24-3.69 8.24-8.24V296.09c0-4.55 3.69-8.24 8.24-8.24h263.66c4.55 0 8.24 3.69 8.24 8.24V675.1c0 4.55-3.69 8.24-8.24 8.24M253.55 485.59h-49.44a8.241 8.241 0 0 1 0-16.48h49.44a8.241 8.241 0 0 1 0 16.48z m24.72-222.46v164.79c0 4.55-3.69 8.24-8.24 8.24h-82.39c-4.55 0-8.24-3.69-8.24-8.24V164.26c0-4.55 3.69-8.24 8.24-8.24h560.27c4.55 0 8.24 3.69 8.24 8.24V675.1c0 4.55-3.69 8.24-8.24 8.24H632.56c-4.55 0-8.24-3.69-8.24-8.24V263.13c0-4.55-3.69-8.24-8.24-8.24H286.51c-4.55 0-8.24 3.69-8.24 8.24z m502.59 486.12H138.2c-4.55 0-8.24-3.69-8.24-8.24v-16.48c0-4.55 3.69-8.24 8.24-8.24h642.66c4.55 0 8.24 3.69 8.24 8.24v16.48c0 4.55-3.69 8.24-8.24 8.24z" fill="#ffffff" p-id="16683"></path><path d="M541.92 205.46c-0.01 18.2 14.73 32.97 32.93 32.98 18.2 0.01 32.97-14.73 32.98-32.93v-0.05c0.01-18.2-14.73-32.97-32.93-32.98-18.2-0.01-32.97 14.73-32.98 32.93v0.05z" fill="#ffffff" p-id="16684"></path><path d="M294.75 188.98h197.74c9.1 0 16.48 7.38 16.48 16.48 0 9.1-7.38 16.48-16.48 16.48H294.75c-9.1 0-16.48-7.38-16.48-16.48 0-9.1 7.38-16.48 16.48-16.48z m395.48 185.59c9.1 0 16.48 7.38 16.48 16.48v32.96c0 9.1-7.38 16.48-16.48 16.48-9.1 0-16.48-7.38-16.48-16.48v-32.96c0-9.1 7.38-16.48 16.48-16.48z m0-98.87c9.1 0 16.48 7.38 16.48 16.48v32.96c0 9.1-7.38 16.48-16.48 16.48-9.1 0-16.48-7.38-16.48-16.48v-32.96c0-9.1 7.38-16.48 16.48-16.48z" fill="#ffffff" p-id="16685"></path><path d="M895.53 885.21H506.95c-8.69 0-15.74-7.05-15.74-15.74V514.4c0-8.69 7.05-15.74 15.74-15.74h388.58c8.69 0 15.74 7.05 15.74 15.74v355.07c0 8.69-7.05 15.74-15.74 15.74z" fill="#ffffff" p-id="16686"></path><path d="M849.39 900.93h-296.3c-42.79 0-77.6-34.81-77.6-77.6v-262.8c0-42.79 34.81-77.6 77.6-77.6H849.4c42.79 0 77.6 34.81 77.6 77.6v262.8c0 42.79-34.81 77.6-77.61 77.6z m-296.3-386.55c-25.45 0-46.15 20.7-46.15 46.15v262.8c0 25.45 20.7 46.15 46.15 46.15H849.4c25.45 0 46.16-20.7 46.16-46.15v-262.8c0-25.45-20.7-46.15-46.16-46.15H553.09z" fill="#ffffff" p-id="16687"></path><path d="M696.92 615.45l-0.28 57.94c-0.02 4.24-4.63 6.85-8.28 4.7l-46.22-27.3a5.494 5.494 0 0 1-2.7-4.73V600.5c0-3.03-2.46-5.49-5.49-5.49h-0.8c-3.03 0-5.49 2.46-5.49 5.49v46.33c0 1.97-1.06 3.8-2.78 4.77l-59.76 33.94a5.49 5.49 0 0 0-2.78 4.75l-0.38 76.79a5.484 5.484 0 0 0 2.7 4.75l66.11 39.05c1.69 1 3.79 1.02 5.5 0.05l66.5-37.76a5.49 5.49 0 0 0 2.78-4.75l0.28-57.94c0.02-4.24 4.63-6.85 8.28-4.7l46.22 27.31c1.67 0.99 2.7 2.78 2.7 4.73v45.95c0 3.03 2.46 5.49 5.49 5.49h0.8c3.03 0 5.49-2.46 5.49-5.49v-46.72c0-1.97 1.06-3.8 2.78-4.77l59.76-33.94a5.49 5.49 0 0 0 2.78-4.75l0.38-76.8a5.484 5.484 0 0 0-2.7-4.75l-66.11-39.05c-1.69-1-3.79-1.02-5.5-0.05l-66.5 37.76a5.514 5.514 0 0 0-2.78 4.75z m-5.88 150.84l-54.63 31c-1.71 0.97-3.81 0.95-5.5-0.05l-54.43-32.15a5.484 5.484 0 0 1-2.7-4.75l0.3-63.2a5.49 5.49 0 0 1 2.78-4.75l54.63-31c1.71-0.97 3.81-0.95 5.5 0.05l54.43 32.16c1.68 0.99 2.71 2.8 2.7 4.75l-0.3 63.2a5.485 5.485 0 0 1-2.78 4.74z m134.57-74.8l-54.63 31c-1.71 0.97-3.81 0.95-5.5-0.05l-54.43-32.16a5.484 5.484 0 0 1-2.7-4.75l0.3-63.22a5.49 5.49 0 0 1 2.78-4.75l54.63-31c1.71-0.97 3.81-0.95 5.5 0.05L826 618.78c1.68 0.99 2.71 2.8 2.7 4.75l-0.3 63.22a5.516 5.516 0 0 1-2.79 4.74z" fill="#ffffff" p-id="16688"></path><path d="M680.24 706.85h0.8c3.03 0 5.49 2.46 5.49 5.49v36.11c0 3.03-2.46 5.49-5.49 5.49h-0.8c-3.03 0-5.49-2.46-5.49-5.49v-36.11c0-3.03 2.46-5.49 5.49-5.49zM592.48 695.57l29.98-17.08c2.63-1.5 5.98-0.58 7.49 2.05l0.39 0.69c1.5 2.63 0.58 5.98-2.05 7.49l-29.98 17.08c-2.63 1.5-5.99 0.58-7.49-2.05l-0.4-0.7a5.48 5.48 0 0 1 2.06-7.48zM590.59 751.26l0.4-0.69a5.492 5.492 0 0 1 7.52-1.94l29.72 17.53a5.495 5.495 0 0 1 1.94 7.52l-0.41 0.69a5.492 5.492 0 0 1-7.52 1.94l-29.72-17.53c-2.6-1.55-3.47-4.91-1.93-7.52zM767.17 604.1l0.4-0.68a5.495 5.495 0 0 1 7.52-1.94l29.71 17.53a5.495 5.495 0 0 1 1.94 7.52l-0.4 0.68a5.495 5.495 0 0 1-7.52 1.94l-29.71-17.53a5.495 5.495 0 0 1-1.94-7.52z" fill="#ffffff" p-id="16689"></path></svg>