<svg t="1717824475642" class="icon" viewBox="0 0 1024 1024" version="1.1" xmlns="http://www.w3.org/2000/svg" p-id="7104" width="200" height="200"><path d="M725.333333 597.333333z m21.333334 0c59.733333 8.533333 106.666667 64 106.666666 128 0 17.066667-4.266667 29.866667-8.533333 42.666667h8.533333v85.333333h-106.666666v-89.6c12.8-8.533333 21.333333-21.333333 21.333333-38.4s-8.533333-29.866667-21.333333-38.4V597.333333z m-42.666667 256c-59.733333-8.533333-106.666667-64-106.666667-128 0-17.066667 4.266667-29.866667 8.533334-42.666666H597.333333v-85.333334h106.666667v89.6c-12.8 8.533333-21.333333 21.333333-21.333333 38.4s8.533333 29.866667 21.333333 38.4V853.333333z m149.333333-238.933333c-21.333333-25.6-51.2-42.666667-85.333333-51.2v-12.8l-256-256-256 256V768h302.933333c8.533333 34.133333 25.6 64 51.2 85.333333H170.666667v-298.666666H128l384-384 384 384h-42.666667v59.733333z" fill="#ffffff" p-id="7105"></path></svg>