<svg t="1717563629066" class="icon" viewBox="0 0 1024 1024" version="1.1" xmlns="http://www.w3.org/2000/svg" p-id="4297" width="200" height="200"><path d="M451.734561 239.37861L119.867602 90.856801a21.465047 21.465047 0 0 0-31.050388 20.394344v647.520414a30.591516 30.591516 0 0 0 23.300538 30.591516l342.93089 158.922924a21.465047 21.465047 0 0 0 30.030671-20.751245V296.839673a64.904999 64.904999 0 0 0-33.344752-57.461063zM714.668638 91.774547v186.965146a27.940251 27.940251 0 0 0 33.191795 27.532364V107.835093a16.111532 16.111532 0 0 0-16.00956-16.060546zM742.710861 536.218283a28.042223 28.042223 0 0 0-28.042223 28.042223v203.943437a3.008166 3.008166 0 0 1-0.917745 2.243378 2.447321 2.447321 0 0 1-2.243378 0.917746l-162.593906-2.447322v35.180243l195.7857 2.95718a2.600279 2.600279 0 0 0 2.243378-0.917745 3.008166 3.008166 0 0 0 0.917746-2.243378v-203.943438a28.042223 28.042223 0 0 1 22.89265-27.532364v-8.157737a28.042223 28.042223 0 0 0-28.042222-28.042223z" fill="#ffffff" p-id="4298"></path><path d="M764.940695 43.796853a72.246963 72.246963 0 0 0-66.281617-43.796853H94.629602A72.246963 72.246963 0 0 0 22.484611 72.144991v686.473611a59.500498 59.500498 0 0 0 36.403904 54.554869 58.174866 58.174866 0 0 1-3.161124-18.864768V107.835093A72.246963 72.246963 0 0 1 127.821397 35.690102h604.029476a71.635132 71.635132 0 0 1 33.089822 8.106751zM962.816816 427.312488c0-0.662816-0.407887-1.274646-0.560845-1.937463a13.358295 13.358295 0 0 0-1.886476-4.486756c-0.305915-0.61183-0.61183-1.223661-0.968732-1.784505a23.045608 23.045608 0 0 0-2.855208-3.518024l-98.75961-98.810596a22.943637 22.943637 0 1 0-32.427006 32.427007l59.551484 59.551484h-318.508664a22.790679 22.790679 0 0 0-17.437164 8.208723v29.469827a22.790679 22.790679 0 0 0 17.437164 8.208723h318.508664l-59.551484 59.551484a22.943637 22.943637 0 1 0 32.427006 32.427007l98.708624-98.708624a23.045608 23.045608 0 0 0 2.855208-3.518025c0.356901-0.560844 0.560844-1.121689 0.86676-1.682533a13.307309 13.307309 0 0 0 1.886477-4.486756c0-0.662816 0.458873-1.274646 0.560844-1.937462a23.045608 23.045608 0 0 0 0.458873-4.486756 23.045608 23.045608 0 0 0-0.305915-4.486755z" fill="#ffffff" p-id="4299"></path><path d="M58.888515 813.224457a59.60247 59.60247 0 0 0 7.443935 14.683928 58.429795 58.429795 0 0 1-5.965345-14.174069zM543.458122 431.697271a22.739693 22.739693 0 0 0 5.506473 14.734914v-29.469827a22.739693 22.739693 0 0 0-5.506473 14.734913zM497.92775 824.135431v35.180243l50.985859 0.764788v-35.180243l-50.985859-0.764788z" fill="#ffffff" p-id="4300"></path><path d="M747.911418 314.429795a28.042223 28.042223 0 0 0 56.084446 0V107.835093A72.348934 72.348934 0 0 0 731.850873 35.690102H127.821397A72.246963 72.246963 0 0 0 55.676405 107.835093v686.47361a58.174866 58.174866 0 0 0 3.161124 18.864768l1.427604 0.560845a58.429795 58.429795 0 0 0 41.196574 40.788687L479.82777 1019.717188a49.201354 49.201354 0 0 0 69.136825-44.969528v-114.718184l-50.985859-0.764788v112.729735l-267.624776-116.757618-83.565824-36.403903-27.022505-11.777734-2.447321-1.070703-2.549293-0.407887a6.985063 6.985063 0 0 1-5.608445-6.883091V125.068313l2.549293 1.070703L475.697915 279.402509a41.50249 41.50249 0 0 1 22.280821 36.709819v507.870146l50.985859 0.764788v35.180242l194.969926 2.906194h0.86676a59.245569 59.245569 0 0 0 59.194583-59.245568v-203.943438a28.042223 28.042223 0 0 0-56.084446 0v203.943438a3.008166 3.008166 0 0 1-0.917745 2.243378 2.600279 2.600279 0 0 1-2.243378 0.917745l-195.7857-2.95718V446.432185a22.739693 22.739693 0 0 1-5.506473-14.734914 22.739693 22.739693 0 0 1 5.506473-14.734913V316.112328a92.23342 92.23342 0 0 0-50.985859-82.75005L161.52305 91.774547h570.327823a16.111532 16.111532 0 0 1 16.060545 16.060546v206.594702z" fill="#ffffff" p-id="4301"></path><path d="M1001.107196 463.002589c0-0.662816-0.407887-1.274646-0.560844-1.937463a13.358295 13.358295 0 0 0-1.886477-4.486755c-0.305915-0.61183-0.61183-1.223661-0.968731-1.784505a23.045608 23.045608 0 0 0-2.855209-3.518025l-98.708623-98.810595a22.943637 22.943637 0 0 0-32.376021 32.427007l59.551484 59.551483h-318.610636a22.943637 22.943637 0 0 0-22.943636 22.943637 22.943637 22.943637 0 0 0 22.943636 22.943637h318.508664L863.751291 549.831508a22.943637 22.943637 0 0 0 32.427007 32.427006l98.708623-98.708624a23.045608 23.045608 0 0 0 2.855208-3.518024c0.356901-0.560844 0.560844-1.121689 0.86676-1.682533a13.307309 13.307309 0 0 0 1.886477-4.486756c0-0.662816 0.458873-1.274646 0.560844-1.937462a23.045608 23.045608 0 0 0 0.458873-4.486756 23.045608 23.045608 0 0 0-0.407887-4.43577z" fill="#ffffff" p-id="4302"></path></svg>