<svg t="1717592132662" class="icon" viewBox="0 0 1024 1024" version="1.1" xmlns="http://www.w3.org/2000/svg" p-id="18213" width="200" height="200"><path d="M425.6 502.4h172.8v67.2h-172.8z" p-id="18214" fill="#ffffff"></path><path d="M640 611.2h-256v-44.8H80v294.4c0 35.2 28.8 64 64 64h736c35.2 0 64-28.8 64-64v-294.4H640v44.8zM924.8 211.2h-240c0-60.8-76.8-112-172.8-112-96 0-172.8 51.2-172.8 112H99.2c-35.2 0-64 28.8-64 64v185.6c0 35.2 28.8 64 64 64H384v-67.2h256v67.2h281.6c35.2 0 64-28.8 64-64V275.2c0-35.2-28.8-64-60.8-64zM384 211.2c0-38.4 57.6-67.2 128-67.2s128 28.8 128 67.2h-256z" p-id="18215" fill="#ffffff"></path></svg>