<svg t="1717594106862" class="icon" viewBox="0 0 1024 1024" version="1.1" xmlns="http://www.w3.org/2000/svg" p-id="23833" width="200" height="200"><path d="M511.23 286.16l-3.35 4.06h6.51z" p-id="23834" fill="#ffffff"></path><path d="M780.02 929.56v-0.34c-1.06 0.12-2.12 0.24-3.19 0.34h3.19z" p-id="23835" fill="#ffffff"></path><path d="M964.1 780.61c-16.51-16.51-36.47-27.55-57.65-33.13V276.62c20.64-5.98 40.15-17.12 56.45-33.42 24.65-24.65 38.39-57.3 38.68-91.93 0.3-34.83-13.02-67.49-37.49-91.96C913.73 8.94 831.23 9.47 780.2 60.5c-17.5 17.5-29.07 38.71-34.67 61.05H501.3l57.23-57.23-43.48-43.48-131.13 131.13 131.79 131.79 43.48-43.48-57.23-57.23h243c5.24 22.54 16.58 43.88 34.05 61.34 18.65 18.65 41.71 30.32 65.95 35.03v466.84c-23.69 5.22-46.28 17.07-64.75 35.54-17.39 17.39-28.91 38.42-34.55 60.6H279.58c-11.71-47.16-49.72-84.24-97.75-95.16l2.76-469.71c56.68-14.17 98.75-64.95 98.75-125.24 0-71.23-58.71-129.18-130.88-129.18S21.57 81.07 21.57 152.3c0 61.27 43.44 112.71 101.51 125.9l-2.76 469.71c-56.68 14.17-98.75 64.95-98.75 125.24 0 71.23 58.71 129.18 130.88 129.18 61.43 0 113.11-42 127.12-98.44h465.28c5.19 22.71 16.56 44.21 34.15 61.8 24.97 24.97 57.83 37.43 90.84 37.43 33.58 0 67.32-12.89 93.05-38.63 51.04-51.02 51.58-133.51 1.21-183.88zM83.07 152.3c0-37.32 31.13-67.69 69.39-67.69 38.26 0 69.38 30.37 69.38 67.69 0 37.32-31.13 67.69-69.38 67.69-38.27 0-69.39-30.36-69.39-67.69z m69.38 788.55c-38.26 0-69.39-30.37-69.39-67.69 0-37.32 31.13-67.69 69.39-67.69 38.26 0 69.38 30.37 69.38 67.69 0.01 37.32-31.12 67.69-69.38 67.69z m671.24-836.86c13.75-13.75 31.73-20.65 49.57-20.65 17.26 0 34.38 6.47 47.36 19.45 12.72 12.71 19.63 29.74 19.48 47.95-0.16 18.41-7.5 35.8-20.67 48.97-13.75 13.75-31.73 20.65-49.57 20.65-17.26 0-34.38-6.47-47.36-19.45-26.4-26.39-25.87-69.87 1.19-96.92z m95.73 817.03c-27.05 27.05-70.53 27.59-96.93 1.2-26.39-26.39-25.85-69.87 1.2-96.93 13.75-13.75 31.73-20.65 49.57-20.65 17.26 0 34.38 6.47 47.36 19.45 26.39 26.39 25.85 69.88-1.2 96.93z" p-id="23836" fill="#ffffff"></path><path d="M774.53 677.91V577.64h-61.49v100.27H672v-50.65h-61.5v50.65h-41.95v-50.65h-61.49v50.65h-41.95v-50.65h-61.49v50.65h-57.58v-49.14h50.65v-61.49h-50.65v-41.95h50.65v-61.49h-50.65v-41.95h50.65v-61.5h-50.65v-49.1h119.15V249.8H284.55v489.61h489.98z" p-id="23837" fill="#ffffff"></path></svg>