<svg t="1717576441380" class="icon" viewBox="0 0 1024 1024" version="1.1" xmlns="http://www.w3.org/2000/svg" p-id="10373" width="200" height="200"><path d="M270.31552 192.52224a83.968 83.968 0 0 1-167.91552 0c0-46.39744 37.59104-83.968 83.95776-83.968 46.39744 0 83.95776 37.57056 83.95776 83.968M497.68448 192.52224a83.97824 83.97824 0 0 1-167.95648 0c0-46.39744 37.60128-83.968 83.95776-83.968a83.95776 83.95776 0 0 1 83.99872 83.968M725.00224 192.52224a83.97824 83.97824 0 0 1-167.95648 0c0-46.39744 37.60128-83.968 83.99872-83.968 46.35648 0 83.95776 37.57056 83.95776 83.968M270.31552 412.68224a83.968 83.968 0 0 1-167.91552 0c0-46.39744 37.59104-83.968 83.95776-83.968 46.39744 0 83.95776 37.57056 83.95776 83.968M497.68448 412.68224a83.97824 83.97824 0 0 1-167.95648 0c0-46.39744 37.60128-83.968 83.95776-83.968a83.95776 83.95776 0 0 1 83.99872 83.968M725.00224 412.68224a83.97824 83.97824 0 0 1-167.95648 0c0-46.39744 37.60128-83.968 83.99872-83.968 46.35648 0 83.95776 37.57056 83.95776 83.968M270.31552 633.83552a83.95776 83.95776 0 1 1-167.91552 0 83.968 83.968 0 0 1 83.95776-83.968c46.39744 0 83.95776 37.61152 83.95776 83.968M497.68448 633.83552a83.98848 83.98848 0 1 1-167.97696 0.02048 83.98848 83.98848 0 0 1 167.97696-0.02048M725.00224 633.83552a83.97824 83.97824 0 1 1-167.96672 0.04096 83.97824 83.97824 0 0 1 167.96672-0.04096M497.68448 851.95776c0 46.39744-37.60128 83.968-83.99872 83.968a83.94752 83.94752 0 0 1-83.968-83.968 83.97824 83.97824 0 0 1 167.95648 0M725.00224 851.95776c0 46.39744-37.60128 83.968-83.968 83.968a83.95776 83.95776 0 1 1 0-167.936 83.968 83.968 0 0 1 83.968 83.968M947.2 192.52224a83.968 83.968 0 0 1-83.968 83.968 83.94752 83.94752 0 0 1-83.94752-83.968c0-46.39744 37.56032-83.968 83.95776-83.968 46.35648 0 83.95776 37.57056 83.95776 83.968M947.2 412.68224a83.968 83.968 0 0 1-83.968 83.968 83.94752 83.94752 0 0 1-83.94752-83.968c0-46.39744 37.56032-83.968 83.95776-83.968 46.35648 0 83.95776 37.57056 83.95776 83.968M270.31552 851.95776c0 46.39744-37.56032 83.968-83.968 83.968a83.94752 83.94752 0 0 1-83.94752-83.968 83.968 83.968 0 0 1 83.95776-83.968c46.39744 0 83.95776 37.61152 83.95776 83.968" p-id="10374" fill="#ffffff"></path></svg>