<svg t="1717577920172" class="icon" viewBox="0 0 1024 1024" version="1.1" xmlns="http://www.w3.org/2000/svg" p-id="10960" width="200" height="200"><path d="M416 128h-192a32 32 0 0 0-32 32v309.76a42.24 42.24 0 0 0 42.24 42.24H416a192 192 0 0 0 0-384z m0 320H256V192h160a128 128 0 0 1 0 256zM992 768a32 32 0 0 0 0-64H896v-18.56l118.4-118.4a32 32 0 0 0-45.44-45.44L864 626.56l-105.6-104.96a32 32 0 0 0-45.44 45.44L832 685.44V704h-96a32 32 0 0 0 0 64H832v64h-96a32 32 0 0 0 0 64H832v96a32 32 0 0 0 64 0V896h96a32 32 0 0 0 0-64H896v-64z" p-id="10961" fill="#ffffff"></path><path d="M576 960H64V64h768v320a32 32 0 1 0 64 0V32a32 32 0 0 0-32-32H32a32 32 0 0 0-32 32v960a32 32 0 0 0 32 32H576a32 32 0 1 0 0-64z" p-id="10962" fill="#ffffff"></path><path d="M576 672a32 32 0 0 0-32-32h-320a32 32 0 0 0 0 64h320a32 32 0 0 0 32-32zM224 768a32 32 0 0 0 0 64h192a32 32 0 0 0 0-64z" p-id="10963" fill="#ffffff"></path></svg>