<svg t="1717587959020" class="icon" viewBox="0 0 1024 1024" version="1.1" xmlns="http://www.w3.org/2000/svg" p-id="13156" width="200" height="200"><path d="M870.101333 146.474667h-114.304V119.893333a34.304 34.304 0 0 0-68.565333 0v26.624H336.768V119.893333a34.261333 34.261333 0 0 0-68.522667 0v26.624h-114.346666C116.053333 146.474667 85.333333 177.194667 85.333333 215.082667v655.232c0 37.888 30.677333 68.565333 68.608 68.565333h716.16c37.888 0 68.565333-30.762667 68.565334-68.608V215.082667c0-37.888-30.677333-68.608-68.608-68.608h0.042666zM153.941333 215.082667h114.261334v19.029333a34.304 34.304 0 0 0 68.565333 0V215.04h350.506667v19.029333a34.261333 34.261333 0 0 0 68.522666 0V215.04h114.346667v106.666667H153.898667v-106.666667z m716.16 655.232H153.941333V390.314667h716.16v480z" fill="#ffffff" p-id="13157"></path><path d="M457.045333 597.290667h144.213334v56.192h-144.213334v-56.192z m144.213334-36.821334h-144.213334V507.306667h144.213334v53.162666z m-146.432 129.834667h146.474666v62.293333c0 9.813333-3.669333 15.146667-10.965333 15.146667-13.525333 0-28.501333-0.725333-44.544-1.877333l10.24 38.741333h46.72c24.832 0 37.248-12.544 37.248-37.589333V469.333333H418.688v186.453334c-0.725333 51.626667-12.032 94.122667-34.688 127.146666l29.226667 27.733334c22.613333-32.256 36.522667-72.533333 41.6-120.32z" fill="#ffffff" p-id="13158"></path></svg>