<svg t="1717570004907" class="icon" viewBox="0 0 1024 1024" version="1.1" xmlns="http://www.w3.org/2000/svg" p-id="6522" width="200" height="200"><path d="M925.538462 607.172923V817.230769H98.461538V607.172923c57.107692 0 103.384615-47.005538 103.384616-105.019077S155.569231 397.134769 98.461538 397.134769V187.076923h827.076924v210.057846c-57.107692 0-103.384615 47.005538-103.384616 105.019077s46.276923 105.019077 103.384616 105.019077zM472.615385 531.692308h-78.769231a39.384615 39.384615 0 1 0 0 78.76923h78.769231v78.769231a39.384615 39.384615 0 1 0 78.76923 0v-78.769231h78.769231a39.384615 39.384615 0 1 0 0-78.76923h-78.769231v-39.384616h78.769231a39.384615 39.384615 0 1 0 0-78.76923h-42.771692l67.249231-67.229539a39.384615 39.384615 0 1 0-55.709539-55.709538L512 377.540923l-86.921846-86.941538a39.384615 39.384615 0 1 0-55.709539 55.709538L436.617846 413.538462H393.846154a39.384615 39.384615 0 1 0 0 78.76923h78.769231v39.384616z" fill="#ffffff" p-id="6523"></path></svg>