<svg t="1717594724861" class="icon" viewBox="0 0 1024 1024" version="1.1" xmlns="http://www.w3.org/2000/svg" p-id="32971" width="200" height="200"><path d="M752 592a16 16 0 0 1 16 16v48l96.032 336.16L864 1008c-0.016 8.832-7.184 16-16.016 16H176a16 16 0 0 1-16-16v-16l96-336v-48a16 16 0 0 1 16-16h480zM635.904 0l69.232 48 94.832 32H800l197.856 136.976a16 16 0 0 1 6.48 16.736l-0.56 1.888-54.096 148.784a16 16 0 0 1-19.312 9.952l-1.76-0.608-145.584-59.312-14.032 210.656a16 16 0 0 1-15.968 14.928H270.976a16 16 0 0 1-15.968-14.928L240.944 334.4l-145.552 59.312a16 16 0 0 1-20.848-8.784l-0.224-0.56-54.096-148.8a16 16 0 0 1 5.92-18.608L224 80l96.688-32 64.88-48c55.76 10.096 97.904 15.152 126.432 15.152 28.528 0 69.824-5.056 123.904-15.152z" fill="#ffffff" p-id="32972"></path><path d="M512 656a16 16 0 0 1 16 16v176a16 16 0 0 1-32 0V672a16 16 0 0 1 16-16z m-115.36-4.16l1.824 0.352 0.192 0.048a15.84 15.84 0 0 1 11.968 17.472l-0.352 1.808-39.776 156.48a14.8 14.8 0 0 1-17.408 10.816l-1.792-0.496-1.344-0.48a16 16 0 0 1-10.608-17.2l0.368-1.856 39.472-154.992a16 16 0 0 1 17.44-11.936z m247.328 11.184l40.48 155.712a16 16 0 0 1-10.224 19.136l-1.28 0.448a14.88 14.88 0 0 1-19.264-10.304l-40.848-157.056a15.856 15.856 0 0 1 11.568-19.392l0.272-0.064a16 16 0 0 1 19.296 11.52zM779.008 384l-10.08 160.992a16 16 0 0 1-14.176 14.912l-1.776 0.096H752a15.04 15.04 0 0 1-15.008-14.208v-1.76L747.008 384h32z m-522.032-80a16 16 0 0 1 15.968 15.008l14.08 225.024a15.04 15.04 0 0 1-15.008 15.968h-0.96a16 16 0 0 1-15.968-15.008l-14.08-225.024a15.04 15.04 0 0 1 14.048-15.936l0.48-0.032h1.44z m511.52 0l0.48 0.032a15.04 15.04 0 0 1 14.048 14.176v1.76L781.024 352h-32l2.064-32.992a16 16 0 0 1 14.176-14.912l1.792-0.096h1.44zM635.904 32l101.776 66.112-120.736 152.608a16 16 0 0 1-21.824 1.856l-1.488-1.344-80.912-76.56-84.752 76.608a16 16 0 0 1-22.624 0.32l-0.624-0.656-115.456-152.832L385.584 32 512 44.576 635.904 32z" fill="#ffffff" p-id="32973"></path><path d="M88.72 175.52l35.408 97.6a14.352 14.352 0 0 1-26.976 9.92l-34.176-90.928 25.744-16.592z m843.136-3.84l27.056 18.512-36.704 88.48a16 16 0 0 1-20.448 8.832l-0.192-0.064a15.328 15.328 0 0 1-8.752-20.128l39.04-95.632z" fill="#ffffff" p-id="32974"></path><path d="M512 384a32 32 0 1 1 0 64 32 32 0 0 1 0-64z m0-112a32 32 0 1 1 0 64 32 32 0 0 1 0-64z" fill="#ffffff" p-id="32975"></path><path d="M635.904 0l96.96 68.48-113.648 142.56a16 16 0 0 1-23.008 2.096l-83.68-72.768-85.92 73.28a16 16 0 0 1-22.544-1.76l-0.384-0.48-110.192-139.792L385.568 0l128.048 114.336L635.904 0z" fill="#ffffff" p-id="32976"></path><path d="M317.28 53.088l125.632 146.672-16.288 13.904a16 16 0 0 1-22.56-1.792l-0.384-0.48-110.192-139.776 23.776-18.528zM705.12 48l27.728 20.48-113.6 142.512-0.48 0.576a16 16 0 0 1-22.576 1.472l-17.44-15.296L705.12 48z" fill="#ffffff" p-id="32977"></path></svg><svg t="1717594724861" class="icon" viewBox="0 0 1024 1024" version="1.1" xmlns="http://www.w3.org/2000/svg" p-id="32971" width="200" height="200"><path d="M752 592a16 16 0 0 1 16 16v48l96.032 336.16L864 1008c-0.016 8.832-7.184 16-16.016 16H176a16 16 0 0 1-16-16v-16l96-336v-48a16 16 0 0 1 16-16h480zM635.904 0l69.232 48 94.832 32H800l197.856 136.976a16 16 0 0 1 6.48 16.736l-0.56 1.888-54.096 148.784a16 16 0 0 1-19.312 9.952l-1.76-0.608-145.584-59.312-14.032 210.656a16 16 0 0 1-15.968 14.928H270.976a16 16 0 0 1-15.968-14.928L240.944 334.4l-145.552 59.312a16 16 0 0 1-20.848-8.784l-0.224-0.56-54.096-148.8a16 16 0 0 1 5.92-18.608L224 80l96.688-32 64.88-48c55.76 10.096 97.904 15.152 126.432 15.152 28.528 0 69.824-5.056 123.904-15.152z" fill="#ffffff" p-id="32972"></path><path d="M512 656a16 16 0 0 1 16 16v176a16 16 0 0 1-32 0V672a16 16 0 0 1 16-16z m-115.36-4.16l1.824 0.352 0.192 0.048a15.84 15.84 0 0 1 11.968 17.472l-0.352 1.808-39.776 156.48a14.8 14.8 0 0 1-17.408 10.816l-1.792-0.496-1.344-0.48a16 16 0 0 1-10.608-17.2l0.368-1.856 39.472-154.992a16 16 0 0 1 17.44-11.936z m247.328 11.184l40.48 155.712a16 16 0 0 1-10.224 19.136l-1.28 0.448a14.88 14.88 0 0 1-19.264-10.304l-40.848-157.056a15.856 15.856 0 0 1 11.568-19.392l0.272-0.064a16 16 0 0 1 19.296 11.52zM779.008 384l-10.08 160.992a16 16 0 0 1-14.176 14.912l-1.776 0.096H752a15.04 15.04 0 0 1-15.008-14.208v-1.76L747.008 384h32z m-522.032-80a16 16 0 0 1 15.968 15.008l14.08 225.024a15.04 15.04 0 0 1-15.008 15.968h-0.96a16 16 0 0 1-15.968-15.008l-14.08-225.024a15.04 15.04 0 0 1 14.048-15.936l0.48-0.032h1.44z m511.52 0l0.48 0.032a15.04 15.04 0 0 1 14.048 14.176v1.76L781.024 352h-32l2.064-32.992a16 16 0 0 1 14.176-14.912l1.792-0.096h1.44zM635.904 32l101.776 66.112-120.736 152.608a16 16 0 0 1-21.824 1.856l-1.488-1.344-80.912-76.56-84.752 76.608a16 16 0 0 1-22.624 0.32l-0.624-0.656-115.456-152.832L385.584 32 512 44.576 635.904 32z" fill="#ffffff" p-id="32973"></path><path d="M88.72 175.52l35.408 97.6a14.352 14.352 0 0 1-26.976 9.92l-34.176-90.928 25.744-16.592z m843.136-3.84l27.056 18.512-36.704 88.48a16 16 0 0 1-20.448 8.832l-0.192-0.064a15.328 15.328 0 0 1-8.752-20.128l39.04-95.632z" fill="#ffffff" p-id="32974"></path><path d="M512 384a32 32 0 1 1 0 64 32 32 0 0 1 0-64z m0-112a32 32 0 1 1 0 64 32 32 0 0 1 0-64z" fill="#ffffff" p-id="32975"></path><path d="M635.904 0l96.96 68.48-113.648 142.56a16 16 0 0 1-23.008 2.096l-83.68-72.768-85.92 73.28a16 16 0 0 1-22.544-1.76l-0.384-0.48-110.192-139.792L385.568 0l128.048 114.336L635.904 0z" fill="#ffffff" p-id="32976"></path><path d="M317.28 53.088l125.632 146.672-16.288 13.904a16 16 0 0 1-22.56-1.792l-0.384-0.48-110.192-139.776 23.776-18.528zM705.12 48l27.728 20.48-113.6 142.512-0.48 0.576a16 16 0 0 1-22.576 1.472l-17.44-15.296L705.12 48z" fill="#ffffff" p-id="32977"></path></svg>