<svg t="1717502829156" class="icon" viewBox="0 0 1253 1024" version="1.1" xmlns="http://www.w3.org/2000/svg" p-id="22398" width="256" height="256"><path d="M606.239041 847.928236H163.181714A163.300305 163.300305 0 0 1 0 684.865113v-521.801991A163.300305 163.300305 0 0 1 163.181714 0h770.84385a163.300305 163.300305 0 0 1 162.588757 163.063122V416.255679a23.718272 23.718272 0 0 1-46.606405 0V163.063122a116.6939 116.6939 0 0 0-116.575309-116.456717h-770.84385a116.6939 116.6939 0 0 0-116.575309 116.456717v521.801991a116.6939 116.6939 0 0 0 116.575309 116.456717h443.650284a23.718272 23.718272 0 1 1 0 46.606406z" fill="#ffffff" p-id="22399"></path><path d="M64.039335 914.932355m22.176585 0l763.254003 0q22.176585 0 22.176585 22.176584l0 0.118592q0 22.176585-22.176585 22.176584l-763.254003 0q-22.176585 0-22.176585-22.176584l0-0.118592q0-22.176585 22.176585-22.176584Z" fill="#ffffff" p-id="22400"></path><path d="M123.335016 227.102457m22.176585 0l598.174828 0q22.176585 0 22.176584 22.176585l0 0.118591q0 22.176585-22.176584 22.176585l-598.174828 0q-22.176585 0-22.176585-22.176585l0-0.118591q0-22.176585 22.176585-22.176585Z" fill="#ffffff" p-id="22401"></path><path d="M123.335016 382.694324m22.176585 0l471.756436 0q22.176585 0 22.176585 22.176585l0 0.118591q0 22.176585-22.176585 22.176585l-471.756436 0q-22.176585 0-22.176585-22.176585l0-0.118591q0-22.176585 22.176585-22.176585Z" fill="#ffffff" p-id="22402"></path><path d="M123.335016 538.404782m22.176585 0l298.73164 0q22.176585 0 22.176584 22.176584l0 0.118592q0 22.176585-22.176584 22.176584l-298.73164 0q-22.176585 0-22.176585-22.176584l0-0.118592q0-22.176585 22.176585-22.176584Z" fill="#ffffff" p-id="22403"></path><path d="M846.505139 474.365446a120.251641 120.251641 0 1 1-120.133049 120.251641A120.370232 120.370232 0 0 1 846.505139 474.365446m0-59.29568a179.42873 179.42873 0 1 0 179.42873 179.547321A179.42873 179.42873 0 0 0 846.505139 415.069766z" fill="#ffffff" p-id="22404"></path><path d="M922.555993 730.311643m20.964189-20.964189l10.398237-10.398237q20.964189-20.964189 41.928378 0l177.86018 177.860179q20.964189 20.964189 0 41.928378l-10.398238 10.398238q-20.964189 20.964189-41.928378 0l-177.860179-177.86018q-20.964189-20.964189 0-41.928378Z" fill="#ffffff" p-id="22405"></path></svg>