<svg t="1717590559801" class="icon" viewBox="0 0 1024 1024" version="1.1" xmlns="http://www.w3.org/2000/svg" p-id="14266" width="200" height="200"><path d="M591.938229 495.524299c109.654607 23.679363 237.216478 100.795224 237.216477 323.181532 0 59.300299-74.125373 59.300299-314.230447 59.300298-243.085373 0-314.230448 0-314.230448-59.300298 0-219.400915 127.465075-299.405373 237.216478-323.181532-85.970149-47.465711-115.620299-157.115224-74.125374-246.070767 41.489831-88.955542 145.270448-121.591085 225.269811-74.125373 79.999363 47.455522 112.64 157.110129 68.159682 243.080279-14.926965 35.620935-38.606328 59.300299-65.276179 77.115861z" fill="#ffffff" p-id="14267"></path><path d="M343.880597 491.942846c9.353552-2.786706 11.742886-14.926965 3.978826-20.897751-68.852537-52.738547-89.948975-150.848955-52.239284-231.739861a170.916299 170.916299 0 0 1 19.904319-32.737433c6.368159-8.161433-0.203781-20.001114-10.545672-19.104478-44.577114 3.780139-86.6681 31.244736-108.16191 77.314548-30.052617 64.374448-14.132219 142.086368 39.202388 185.471363 7.361592 6.067582 5.17604 17.810468-3.978826 20.69397-82.286806 25.676418-167.462209 94.029692-167.462209 255.526209 0 24.774687 15.222448 36.716259 56.91606 42.585154a11.997612 11.997612 0 0 0 13.531064-10.647562C151.445015 592.040119 249.947701 519.702925 343.880597 491.942846z m333.233035 0c-9.353552-2.786706-11.742886-14.926965-3.978826-20.897751 68.857632-52.738547 89.948975-150.848955 52.239284-231.739861a170.916299 170.916299 0 0 0-19.899224-32.737433c-6.368159-8.161433 0.198687-20.001114 10.545671-19.104478 44.577114 3.780139 86.6681 31.244736 108.156816 77.314548 30.052617 64.374448 14.132219 142.086368-39.202388 185.471363-7.361592 6.067582-5.17604 17.810468 3.978826 20.69397 82.2919 25.676418 167.462209 94.029692 167.462209 255.526209 0 24.774687-15.222448 36.716259-56.91606 42.585154a11.997612 11.997612 0 0 1-13.531064-10.647562c-16.414567-166.366886-114.922348-238.70408-208.855244-266.464159z" fill="#ffffff" p-id="14268"></path></svg>