<svg t="1717569886019" class="icon" viewBox="0 0 1024 1024" version="1.1" xmlns="http://www.w3.org/2000/svg" p-id="5438" width="200" height="200"><path d="M889.6 581.44L823.2 544 659.04 840.8l16.8 48 49.76-11.84z" fill="#ffffff" opacity=".15" p-id="5439"></path><path d="M889.6 581.44L823.2 544 659.04 840.8l16.8 48 49.76-11.84z m-395.2-11.2v-56.8h-96a19.04 19.04 0 1 1 0-37.92h96v-32l-92.64-88.32a19.04 19.04 0 0 1 25.6-28l84 80 84-80a18.88 18.88 0 1 1 26.24 27.36l-89.92 85.6v34.88h93.44a18.88 18.88 0 0 1 19.68 19.36 19.2 19.2 0 0 1-19.04 19.04h-93.44v56.8h93.44a19.04 19.04 0 1 1 0 37.92h-93.44v65.6a19.04 19.04 0 1 1-37.92 0V608h-96a18.88 18.88 0 0 1-19.04-18.88 19.36 19.36 0 0 1 19.04-19.04zM841.6 512l66.4 36.8a37.76 37.76 0 0 1 14.72 51.52l-168 302.56a18.88 18.88 0 0 1-12.16 9.28L668 929.92a18.88 18.88 0 0 1-22.24-12.32l-25.28-72.32a19.52 19.52 0 0 1 1.28-16l168.32-304A37.92 37.92 0 0 1 841.6 512z m-34.24 60.8l-18.24 33.28 66.56 36.8 18.4-33.12zM498.08 872.32a19.04 19.04 0 1 1 0 37.92h-288a93.44 93.44 0 0 1-96-91.2V204.96a93.44 93.44 0 0 1 96-91.2h585.6a93.44 93.44 0 0 1 96 91.2V400a19.84 19.84 0 0 1-39.68 0V204.96a54.56 54.56 0 0 0-55.84-53.28H209.28a54.56 54.56 0 0 0-55.68 53.28v614.08a54.56 54.56 0 0 0 55.68 53.28z" fill="#ffffff" p-id="5440"></path></svg>