<svg t="1717594339094" class="icon" viewBox="0 0 1024 1024" version="1.1" xmlns="http://www.w3.org/2000/svg" p-id="25992" width="200" height="200"><path d="M310.686 409.492l-22.94-22.94 59.97-59.97c9.934-9.935 9.934-26.192 0-36.307-9.935-9.935-26.192-9.935-36.307 0l-59.97 59.97-62.318-62.318 31.43-31.43c9.935-9.935 9.935-26.192 0-36.307-9.935-9.935-26.192-9.935-36.307 0l-31.43 31.43-36.487-36.488 102.598-102.599c9.574-9.573 26.011-9.573 35.585 0L430.806 288.83l50.758-50.758L305.267 61.957c-18.244-18.244-42.629-28.36-68.46-28.36-25.83 0-50.215 10.116-68.458 28.36L14.992 215.132 259.93 460.068l50.757-50.576z m475.242 132.944l-50.758 50.758 182.438 182.438c4.696 4.696 7.406 11.018 7.406 17.702 0 6.683-2.529 13.005-7.406 17.882L815.009 913.815l-34.139-34.14 31.43-31.43c9.935-9.934 9.935-26.191 0-36.306-9.935-9.935-26.192-9.935-36.307 0l-31.43 31.43-62.318-62.318 59.97-59.97c9.935-9.935 9.935-26.192 0-36.307s-26.192-9.935-36.307 0l-59.97 59.97-31.249-31.25-50.757 50.758 250.897 250.897 153.356-153.356c18.244-18.244 28.359-42.63 28.359-68.46s-10.115-50.215-28.36-68.459L785.929 542.436z m-38.475-38.293l247.465-247.466c10.658-10.657 16.438-24.746 16.438-39.739s-5.78-29.081-16.438-39.738L846.981 29.262c-2.71-2.71-5.78-5.238-8.85-7.225-3.072-1.987-6.323-3.793-9.755-5.058-6.864-2.71-14.09-4.154-21.134-4.154-5.419 0-10.838 0.722-16.076 2.348-3.432 1.084-6.864 2.348-10.115 4.155-4.877 2.528-9.574 5.96-13.548 10.115L520.038 276.908l-50.757 50.758-120.3 120.3-50.758 50.577-139.629 139.628c-11.199 11.2-23.843 29.985-29.984 44.616L17.16 949.037c-7.767 18.787-4.877 37.572 7.767 50.216 7.948 7.948 18.244 12.103 29.624 12.103 6.683 0 13.547-1.445 20.592-4.335l266.25-111.63c14.632-6.142 33.417-18.786 44.617-29.985l139.628-139.629 15.534-15.715L696.696 554.54l50.757-50.396zM191.47 718.37l114.16 114.16-196.347 82.187L191.47 718.37z m334.169-93.928l-50.758 50.758-115.423 115.423-126.081-126.08L348.799 549.12l50.758-50.758 120.3-120.3L807.062 90.858l126.08 126.08-236.446 236.447-50.758 50.758-120.3 120.3z" p-id="25993" fill="#ffffff"></path></svg>