<svg t="1717491030861" class="icon" viewBox="0 0 1024 1024" version="1.1" xmlns="http://www.w3.org/2000/svg" p-id="8013" width="500" height="500"><path d="M20.416 204.032L373.76 63.488a16 16 0 0 1 20.992 9.6c20.48 58.304 61.44 87.488 123.136 87.488s102.72-29.12 123.072-87.424a16 16 0 0 1 21.12-9.536L1009.92 204.16a16 16 0 0 1 9.152 20.032L939.52 456.896a16 16 0 0 1-21.376 9.6L832 430.208v449.728a16 16 0 0 1-16 16h-608a16 16 0 0 1-16-16V430.272l-74.176 35.264a16 16 0 0 1-21.888-8.96L11.264 224.384a16 16 0 0 1 9.152-20.352z" fill="#ffffff" p-id="8014"></path></svg>